# xmcd
#
# Track frame offsets:
#	150
#	14461
#	34265
#	52384
#	70379
#	82115
#	97797
#	113587
#	132032
#	146232
#	163545
#	180322
#
# Disc length: 2566 seconds
#
# Revision: 0
# Processed by: cddbd v1.5.2PL0 Copyright (c) Steve Scherf et al.
# Submitted via: EasyCDDAExtractor 9.1.3.1
#
DISCID=a20a040c
DTITLE=Hayley Oliver - I Can Still Dream
DYEAR=2009
DGENRE=Country
TTITLE0=Another Lonely Night
TTITLE1=I Can Still Dream
TTITLE2=Back to New England
TTITLE3=Don't Move
TTITLE4=I Only Want to Love You Forever
TTITLE5=Given Time
TTITLE6=You Know Who
TTITLE7=Be Loved
TTITLE8=Heartless
TTITLE9=For A while
TTITLE10=Love Doing Its Thing
TTITLE11=Places In My Heart
EXTD=
EXTT0=
EXTT1=
EXTT2=
EXTT3=
EXTT4=
EXTT5=
EXTT6=
EXTT7=
EXTT8=
EXTT9=
EXTT10=
EXTT11=
PLAYORDER=
